<?xml version="1.0" encoding="utf-8"?>
<svg version="1.1" xmlns="http://www.w3.org/2000/svg" xmlns:xlink="http://www.w3.org/1999/xlink" x="0px" y="0px"
	 viewBox="0 0 150 150" style="enable-background:new 0 0 150 150;" xml:space="preserve">
<path d="M49.6,73.3H12.2c-2.3,0-4.2,1.9-4.2,4.2V86c0,2.3,1.9,4.2,4.2,4.2H50c4.2,0,8.2,2.9,8.9,7.1c0.9,5.3-3.2,9.9-8.4,9.9
	c-3.7,0-6.9-2.4-8.1-5.8c-0.6-1.7-2.3-2.7-4-2.7h-8.7c-2.6,0-4.7,2.3-4.2,4.9c2.3,11.7,12.6,20.6,25,20.6
	c15.1,0,27.2-13.3,25.3-28.8C74.1,82.6,62.5,73.3,49.6,73.3z M12.2,64.8h89.1c15.8,0,28.3-14.5,24.9-31c-2-9.6-9.8-17.4-19.4-19.4
	c-14.7-3.1-27.9,6.6-30.5,20c-0.5,2.5,1.6,4.9,4.2,4.9h8.7c1.8,0,3.5-1,4-2.7c1.1-3.4,4.3-5.8,8.1-5.8c5.1,0,9.3,4.6,8.4,9.9
	c-0.7,4.2-4.6,7.1-8.9,7.1H12.2c-2.3,0-4.2,1.9-4.2,4.2v8.5C8,62.9,9.9,64.8,12.2,64.8z M114.1,73.3H72.7c5.1,4.4,8.8,10.3,10.6,17
	h30.9c7,0,12.7,5.7,12.7,12.7c0,7-5.7,12.7-12.7,12.7c-4.7,0-8.8-2.6-11-6.5c-0.8-1.3-2.3-2-3.8-2h-9c-2.9,0-5,2.9-4.1,5.6
	c4.7,13.4,18.7,22.5,34.3,19.2c10.9-2.3,19.9-11,22.5-21.9C147.6,90.7,132.8,73.3,114.1,73.3z"/>
</svg>
