<?xml version="1.0" encoding="utf-8"?>
<svg version="1.1" xmlns="http://www.w3.org/2000/svg" xmlns:xlink="http://www.w3.org/1999/xlink" x="0px" y="0px"
	 viewBox="0 0 160.7 160.7" style="enable-background:new 0 0 160.7 160.7;" xml:space="preserve">
<path id="bell" d="M31.9,128.4c-3.6-2.7-5.6-7-5.3-11.3c0.2-4.7,2.5-9,6.2-11.7l22.3,22.3c-2.9,3.7-7.2,5.9-11.7,6.2
	C38.9,133.8,34.6,131.8,31.9,128.4z M6.7,58.8c0,0-0.3-4.9,8.3-6.5c8.6-1.6,19.9-5.1,19.9-5.1s22.4-18.4,29.2-24
	c9.3-8.2,20.7-13.4,32.9-15.1c10.9-0.8,21.8,1.6,31.4,6.9c0,0,14.1-15.5,23.4-6.5s-6.5,23.4-6.5,23.4c5.4,9.7,7.8,20.6,7,31.5
	c-1.8,12.1-7.3,23.6-15.5,32.6c-5.5,6.7-23.4,29.4-23.4,29.4s-2.7,13-4.9,22.2c-2.2,9.1-6.8,8.7-6.8,8.7L6.7,58.8z"/>
</svg>
