<svg id="Layer_1" data-name="Layer 1" xmlns="http://www.w3.org/2000/svg" viewBox="0 0 150 150"><path d="M142.94,32.23A9.37,9.37,0,0,0,131,26.51L32.45,61.14V57.8c0-5-3.44-9-7.68-9H14.21c-4.24,0-7.67,4-7.67,9v62.37A3.85,3.85,0,0,0,10.38,124H28.6a3.85,3.85,0,0,0,3.85-3.85V80.85l2.91-1a6.13,6.13,0,0,0,.61-.18l.44-.16,100.81-35.4A9.37,9.37,0,0,0,142.94,32.23ZM19.3,77.52a5.12,5.12,0,1,1,5.12-5.12A5.12,5.12,0,0,1,19.3,77.52ZM42.16,74.2l-7.23,2.54-.19.05,1.77-13.74,7.43-2.61Zm21.65-7.61L56.39,69.2l1.77-13.76,7.42-2.61ZM85.46,59,78,61.6,79.8,47.84l7.43-2.61Zm21.64-7.6L99.68,54l1.77-13.76,7.42-2.61Zm21.65-7.61-7.43,2.61,1.78-13.76L130.52,30Z"/></svg>