<?xml version="1.0" encoding="utf-8"?>
<svg version="1.1" xmlns="http://www.w3.org/2000/svg" xmlns:xlink="http://www.w3.org/1999/xlink" x="0px" y="0px"
	 viewBox="0 0 150 150" style="enable-background:new 0 0 150 150;" xml:space="preserve">
<g>
	<path d="M87.7,94.2c1.9,0,3.3-0.6,4.3-2c1.1-1.4,1.6-3.2,1.6-5.4v-5.5c0-2.2-0.5-4-1.6-5.3c-1-1.3-2.4-2-4.3-2
		c-1.8,0-3.2,0.6-4.2,2c-1,1.4-1.6,3.2-1.6,5.4l0.3,5.5c0,2.2,0.2,4,1.3,5.4C84.5,93.5,85.9,94.2,87.7,94.2z"/>
	<path d="M123.3,71.9c0.9-3,1.4-6.1,1.4-9.2c0-16.9-13.8-30.7-30.7-30.7c-10.3,0-19.9,5.2-25.6,13.8c-4.3-3.1-9.6-4.8-15-4.8
		c-14.2,0-25.8,11.6-25.8,25.8c0,1.7,0.2,3.4,0.5,5C17.4,73.9,9.5,83.5,9.5,94.6C9.5,107.5,20,118,32.9,118h84.7
		c12.9,0,23.4-10.5,23.4-23.4C141.1,83.7,133.7,74.4,123.3,71.9z M70.5,79.3l-0.2,0.7h-7.1v-0.7c0-1.8-0.4-3.2-1.2-4.1
		c-0.8-0.9-2.1-1.3-3.9-1.3c-1.6,0-2.8,0.6-3.7,1.9c-1,1.3-1.5,3.1-1.5,5.2l0.3,6c0,2.1,0.2,3.9,1.2,5.2c1,1.3,2.3,1.9,4,1.9
		c1.7,0,2.9-0.4,3.7-1.3c0.8-0.9,1.2-2.2,1.2-4.1v-0.7h7.1l0.2,0.7l0,0.1c0.1,3.4-1,6.2-3.2,8.3c-2.2,2-5.2,3-9,3
		c-3.8,0-7-1.2-9.3-3.7c-2.4-2.5-3.6-5.7-3.6-9.5v-6c0-3.8,1.2-7,3.5-9.5c2.3-2.5,5.4-3.7,9.1-3.7c3.9,0,7,1,9.2,3.1
		c2.2,2,3.4,4.9,3.3,8.4L70.5,79.3z M101.1,86.8c0,3.9-1.2,7.1-3.7,9.7c-2.5,2.5-5.7,3.8-9.6,3.8c-3.9,0-7.1-1.3-9.6-3.8
		c-2.4-2.5-3.7-5.8-3.7-9.7v-5.4c0-3.9,1.2-7.1,3.7-9.7c2.4-2.6,5.7-3.9,9.5-3.9c3.9,0,7.2,1.3,9.6,3.8c2.5,2.5,3.7,5.8,3.7,9.7
		V86.8z"/>
</g>
</svg>
