<svg xmlns="http://www.w3.org/2000/svg" viewBox="0 0 150 150"><path d="M28.12,140.48a6.16,6.16,0,0,1-5.85,6.42H5.86A6.16,6.16,0,0,1,0,140.48V53.17a6.16,6.16,0,0,1,5.86-6.42H22.27a6.16,6.16,0,0,1,5.85,6.42Z"/><path d="M68.75,141.39a5.69,5.69,0,0,1-5.86,5.51H46.48a5.7,5.7,0,0,1-5.86-5.51v-75a5.7,5.7,0,0,1,5.86-5.51H62.89a5.69,5.69,0,0,1,5.86,5.51Z"/><path d="M109.38,139.9c0,3.87-2.63,7-5.86,7H87.11c-3.24,0-5.86-3.13-5.86-7V44.76c0-3.86,2.62-7,5.86-7h16.41c3.23,0,5.86,3.13,5.86,7Z"/><path d="M150,137.68c0,5.09-2.62,9.22-5.86,9.22H127.73c-3.23,0-5.85-4.13-5.85-9.22V12.32c0-5.09,2.62-9.22,5.85-9.22h16.41c3.24,0,5.86,4.13,5.86,9.22Z"/></svg>