<?xml version="1.0" encoding="utf-8"?>
<svg version="1.1" xmlns="http://www.w3.org/2000/svg" xmlns:xlink="http://www.w3.org/1999/xlink" x="0px" y="0px"
	 viewBox="0 0 150 150" style="enable-background:new 0 0 150 150;" xml:space="preserve">
<path d="M119.7,68.9c0.8-2.1,1.3-4.4,1.3-6.9c0-10.5-8.5-19-19-19c-3.9,0-7.6,1.2-10.6,3.2c-5.5-9.5-15.8-15.9-27.5-15.9
	C46.3,30.3,32,44.5,32,62c0,0.5,0,1.1,0,1.6C21,67.6,13,78.2,13,90.6c0,15.8,12.8,28.6,28.6,28.6h73c14,0,25.4-11.4,25.4-25.4
	C140,81.5,131.3,71.3,119.7,68.9z"/>
</svg>
