<?xml version="1.0" encoding="utf-8"?>
<svg version="1.1" xmlns="http://www.w3.org/2000/svg" xmlns:xlink="http://www.w3.org/1999/xlink" x="0px" y="0px"
	 viewBox="0 0 150 150" style="enable-background:new 0 0 150 150;" xml:space="preserve">
<path id="Fire" d="M59.9,32.4C64.1,22.1,65.7,11,64.6,0c0,0,12.9,5.5,21.9,15.3S96,27.8,100.6,39s5.8,16.2,5.8,16.2
	c3-2.8,4.9-6.5,5.4-10.5c0.8-6.7-2.2-16.2-2.2-16.2s18.8,17.3,26.9,39.3c3.8,11.3,6.2,24.8,1.3,43.4c-11.4,25.7-37.2,38.8-37.2,38.8
	s5.7-20.7,5.2-35.9c-0.2-6.8-2.6-19.5-8.6-29.7c-7.5-12.5-19-22-19-22c0.7,6.9,0.2,14-1.6,20.7c-3,10.2-10.7,20.6-10.7,20.6
	c0.6-3.9,0.6-7.8,0-11.7c-0.8-3.6-2.3-6.9-4.4-9.9c-0.9,5.4-2.6,10.6-4.8,15.6c-3.8,8.3-10.3,17.8-12,26.2
	c-3.4,17,3.3,26.1,3.3,26.1s-25.1-6.3-35-35.9C6.3,94,18.2,74.9,20.6,70.6c2.5-3.4,4.5-7.2,6.1-11.1c1.7-4.8,3.1-9.8,4-14.8
	c2,3.5,3.5,7.3,4.6,11.2c1,4.3,1.6,8.6,1.7,13C37,68.8,53.1,49.6,59.9,32.4L59.9,32.4z"/>
</svg>
