<?xml version="1.0" encoding="utf-8"?>
<svg version="1.1" xmlns="http://www.w3.org/2000/svg" xmlns:xlink="http://www.w3.org/1999/xlink" x="0px" y="0px"
	 viewBox="0 0 150 150" style="enable-background:new 0 0 150 150;" xml:space="preserve">
<path id="controller" d="M107.8,149l-0.5-7.1c-1.3-0.3-2.6-0.7-3.8-1.3c-1.2-0.5-2.4-1.1-3.5-1.8l-5.4,4.3l-7.4-7.5l4.4-5.3
	c-0.7-1.1-1.3-2.3-1.8-3.5c-0.5-1.3-0.9-2.6-1.3-3.9l-7.1-0.6v-10.6h0c1-0.1,6.3-0.6,7-0.6c0,0,0,0,0.1,0c0.7-2.8,1.8-5.4,3.3-7.9
	l-2.7-3.1l-10.9,11.2c-0.1-0.1-8.1-6.5-8.3-6.6c-1.8,1.1-3.6,2-5.5,2.8c-2,0.8-4,1.5-6.1,2c0.1,0.1-0.8,10.8-0.8,10.9h-17l-0.8-11
	c-2-0.5-3.9-1.1-5.8-1.9c-1.9-0.8-3.7-1.7-5.4-2.8l-8.3,6.6L8.9,99.8l6.7-8.1c-1.1-1.7-2-3.6-2.8-5.4c-0.8-1.9-1.5-3.9-2-6L0,79.3
	V63l0.1,0c1.6-0.2,9.7-1,10.7-1c0,0,0.1,0,0.1,0c1-4.3,2.7-8.4,5.1-12.1l-7-7.9l11.3-11.4c0.1,0.1,8.2,6.8,8.4,6.8l0,0
	c1.7-1.1,3.5-2,5.3-2.7c1.9-0.8,3.9-1.4,5.8-1.9c0,0,0.7-10.8,0.7-11.2v0h17c0,0.1,1,11.2,1,11.2c4.1,1,8,2.6,11.6,4.9l8-6.9
	l7.6,7.8V28.3h0c1-0.1,6.3-0.6,7-0.6c0,0,0,0,0.1,0c0.7-2.8,1.8-5.4,3.3-7.9l-4.6-5.2L99,7.3c0.1,0,5.3,4.4,5.5,4.4l0,0
	c1.1-0.7,2.3-1.3,3.5-1.8c1.2-0.5,2.5-0.9,3.8-1.3c0,0,0.5-7,0.5-7.3v0h11.1c0,0.1,0.7,7.3,0.7,7.3c2.7,0.6,5.2,1.7,7.6,3.2l5.2-4.5
	l7.2,7.4l-4.2,5.4c0.7,1.1,1.3,2.3,1.8,3.6c0.5,1.3,1,2.6,1.3,3.9c0,0,0,0,0,0c0.5,0,7,0.8,7.1,0.8V39h0c-1,0.1-6.1,0.6-7,0.6
	c-0.1,0-0.1,0-0.1,0c-0.6,2.7-1.7,5.3-3.2,7.7l4.3,5.1l-7.2,7.5c-0.1,0-5.3-4.3-5.4-4.3c-1.1,0.7-2.4,1.3-3.6,1.8
	c-1.3,0.5-2.6,1-3.9,1.3c0,0-0.5,7-0.5,7.1h-11.1l-0.5-7.1c-1.3-0.3-2.6-0.7-3.8-1.3c-1.2-0.5-2.4-1.1-3.5-1.8L99,59.8l-7.4-7.5
	l4.4-5.3c-0.7-1.1-1.3-2.3-1.8-3.5c-0.5-1.3-1-2.6-1.3-3.9L86.3,39l3,3.1l-6.5,8.3c1.1,1.7,2,3.6,2.8,5.5c0.8,1.9,1.5,4,2,6
	c0,0,0,0,0,0c0.7,0,10.8,1.2,10.9,1.2v16.3l0,0c-1.6,0.2-9.4,0.9-10.7,0.9c-0.1,0-0.2,0-0.2,0c-1,4.2-2.6,8.1-4.9,11.7l4.8,5.7
	l7.1-7.1c0.1,0,5.3,4.4,5.5,4.4l0,0c1.1-0.7,2.3-1.3,3.5-1.8c1.2-0.5,2.5-0.9,3.8-1.3c0,0,0.5-7,0.5-7.3v0h11.1
	c0,0.1,0.7,7.3,0.7,7.3c2.7,0.6,5.2,1.7,7.6,3.2l5.2-4.5l7.2,7.4l-4.2,5.4c0.7,1.1,1.3,2.3,1.8,3.6c0.5,1.3,1,2.6,1.3,3.9
	c0,0,0,0,0,0c0.5,0,7,0.8,7.1,0.8v10.6h0c-1,0.1-6.1,0.6-7,0.6c-0.1,0-0.1,0-0.1,0c-0.6,2.7-1.7,5.3-3.2,7.7l4.3,5.1l-7.2,7.5
	c-0.1,0-5.3-4.3-5.4-4.3c-1.1,0.7-2.4,1.3-3.6,1.8c-1.3,0.5-2.6,1-3.9,1.3c0,0-0.5,7-0.5,7.1L107.8,149L107.8,149z M107.9,103.9
	c-7.2,3-10.5,11.3-7.5,18.5c3,7.2,11.3,10.5,18.5,7.5c7.2-3,10.5-11.3,7.5-18.5c-2.2-5.2-7.3-8.6-13-8.6
	C111.5,102.8,109.7,103.2,107.9,103.9L107.9,103.9z M40.7,51.1c-11,4.6-16.2,17.3-11.5,28.3S46.5,95.6,57.5,91
	c11-4.6,16.2-17.3,11.5-28.3c-3.4-8-11.2-13.2-19.9-13.2C46.2,49.4,43.4,50,40.7,51.1z M112.3,20.6c-7.2,3-10.5,11.3-7.5,18.5
	c3,7.2,11.3,10.5,18.5,7.5c7.2-3,10.5-11.3,7.5-18.5c-2.2-5.2-7.3-8.6-13-8.6C115.9,19.5,114.1,19.9,112.3,20.6z"/>
</svg>
