<?xml version="1.0" encoding="utf-8"?>
<svg version="1.1" xmlns="http://www.w3.org/2000/svg" xmlns:xlink="http://www.w3.org/1999/xlink" x="0px" y="0px"
	 viewBox="0 0 150 150" style="enable-background:new 0 0 150 150;" xml:space="preserve">
<path id="Door" d="M59.5,0l62.7,11.7V138l-62.7,12V0z M66.6,72c-0.4,0.2-0.7,0.4-1,0.7c-1.3,1.3-1.3,3.4,0,4.7
	c0.3,0.3,0.7,0.5,1,0.7c0.8,0.3,1.7,0.3,2.5,0c0.4-0.2,0.7-0.4,1-0.7c1.3-1.3,1.3-3.4,0-4.7c-0.3-0.3-0.7-0.5-1-0.7
	C68.4,71.7,67.5,71.7,66.6,72z M54.6,138H30V11.9h24.6v6.7H37.8v112.5h16.9V138L54.6,138z"/>
</svg>
