<?xml version="1.0" encoding="utf-8"?>
<svg version="1.1" xmlns="http://www.w3.org/2000/svg" xmlns:xlink="http://www.w3.org/1999/xlink" x="0px" y="0px"
	 viewBox="0 0 150 150" style="enable-background:new 0 0 150 150;" xml:space="preserve">
<path id="Window" d="M55.2,25l74.7,9.8V140l-74.7,10L55.2,25z M64.1,140.3l28.5-3.3V90.1H64.1L64.1,140.3z M100,136.1l23.4-2.9l0-43
	H100L100,136.1z M100,84l23.4,0.4V40.8L100,38.1V84z M64.1,83.5L92.6,84V37.5l-28.5-3.3V83.5z M20,138V37.5h29.4V45H29.2v85.7h20.1
	v7.3L20,138z M55.3,8.4V0L130,9.9v6.7L55.3,8.4z"/>
</svg>
