<?xml version="1.0" encoding="utf-8"?>
<svg version="1.1" xmlns="http://www.w3.org/2000/svg" xmlns:xlink="http://www.w3.org/1999/xlink" x="0px" y="0px"
	 viewBox="0 0 150 150" style="enable-background:new 0 0 150 150;" xml:space="preserve">
<path id="stayarmed" d="M36.6,150c-1.5,0-2.9-0.1-4.4-0.4c-8.5-1.7-15.1-8.3-16.8-16.8c-0.3-1.4-0.4-2.9-0.4-4.3v-51
	c0-1.5,0.1-2.9,0.4-4.4c1.7-8.5,8.3-15.1,16.8-16.8c1.4-0.3,2.9-0.4,4.3-0.4h67.3V27.4c0-7.1-5.8-12.9-12.9-12.9l0,0H61
	c-7.1,0-12.9,5.8-13,12.9l0,0v13.3H32.5V30.2c0-2,0.2-4.1,0.6-6.1C35.6,12.3,44.8,3,56.7,0.6c2-0.4,4-0.6,6.1-0.6h25.9
	c2,0,4.1,0.2,6.1,0.6c11.8,2.4,21.1,11.7,23.5,23.5c0.4,2,0.6,4,0.6,6.1v26l0.3,0.1c8.5,1.7,15.1,8.3,16.8,16.8
	c0.3,1.4,0.4,2.9,0.4,4.3v51c0,1.5-0.1,2.9-0.4,4.4c-1.7,8.5-8.3,15.1-16.8,16.8c-1.4,0.3-2.9,0.4-4.4,0.4L36.6,150L36.6,150z
	 M69.9,83.9c-6.9,2.9-10.1,10.8-7.2,17.7c1.3,3.2,3.9,5.7,7,7.1v14.1h10.8v-14.1c6.8-2.9,10-10.9,7.1-17.7S76.8,80.9,69.9,83.9
	L69.9,83.9L69.9,83.9z"/>
</svg>
