<svg xmlns="http://www.w3.org/2000/svg" viewBox="0 0 149 150"><path d="M14.59,94.4a13.74,13.74,0,0,1-2.77-.25A13.45,13.45,0,0,1,1.25,83.57,13.13,13.13,0,0,1,1,80.87V48.77A13.74,13.74,0,0,1,1.25,46,13.45,13.45,0,0,1,11.82,35.43a13.13,13.13,0,0,1,2.71-.25H56.88V17.24a8.14,8.14,0,0,0-8.12-8.12H29.95a8.23,8.23,0,0,0-8.18,8.12h0v8.37H12V19a19.84,19.84,0,0,1,.38-3.84A19.07,19.07,0,0,1,27.24.38,19.37,19.37,0,0,1,31.08,0h16.3a19.84,19.84,0,0,1,3.84.38A19,19,0,0,1,66,15.17,19.37,19.37,0,0,1,66.39,19V35.37l0.19,0.06A13.45,13.45,0,0,1,77.15,46a13.13,13.13,0,0,1,.25,2.71v32.1a13.74,13.74,0,0,1-.25,2.77A13.42,13.42,0,0,1,63.81,94.4H14.59Zm21-41.6a8.49,8.49,0,0,0-.13,15.61v8.87h6.8V68.41A8.49,8.49,0,0,0,35.55,52.8h0Z" transform="translate(-1)"/><path d="M143.75,150a0.85,0.85,0,0,1-.4-0.06H76.49a6.56,6.56,0,0,1-2.06-.4A6.74,6.74,0,0,1,71.18,147a5.68,5.68,0,0,1-1-2.34,7,7,0,0,1-.06-2.17,9.1,9.1,0,0,1,.57-2.23L104.3,87a11.64,11.64,0,0,1,1.48-2.23,7.36,7.36,0,0,1,1.71-1.54,4.07,4.07,0,0,1,2.17-.69h0a4.27,4.27,0,0,1,2.23.69,9.35,9.35,0,0,1,1.83,1.54A12.52,12.52,0,0,1,115.37,87l34.09,53.22a6.4,6.4,0,0,1,.51,2.06,6.81,6.81,0,0,1-1.37,4.68,6.65,6.65,0,0,1-2.74,2.46,5.1,5.1,0,0,1-2.11.57h0Zm-33.86-15.53a4.34,4.34,0,1,0,4.34,4.34A4.34,4.34,0,0,0,109.89,134.47Zm0-33.18a3.83,3.83,0,0,0-3.83,3.83v20.1a3.85,3.85,0,0,0,7.71.06V105.12a3.91,3.91,0,0,0-3.88-3.83h0Z" transform="translate(-1)"/></svg>