<svg xmlns="http://www.w3.org/2000/svg" viewBox="0 0 150 150"><path d="M143.75,150a0.85,0.85,0,0,1-.4-0.06H76.49a6.56,6.56,0,0,1-2.06-.4A6.74,6.74,0,0,1,71.18,147a5.68,5.68,0,0,1-1-2.34,7,7,0,0,1-.06-2.17,9.1,9.1,0,0,1,.57-2.23L104.3,87a11.64,11.64,0,0,1,1.48-2.23,7.36,7.36,0,0,1,1.71-1.54,4.07,4.07,0,0,1,2.17-.69h0a4.27,4.27,0,0,1,2.23.69,9.35,9.35,0,0,1,1.83,1.54A12.52,12.52,0,0,1,115.37,87l34.09,53.22a6.4,6.4,0,0,1,.51,2.06,6.81,6.81,0,0,1-1.37,4.68,6.65,6.65,0,0,1-2.74,2.46,5.1,5.1,0,0,1-2.11.57h0Zm-33.86-15.53a4.34,4.34,0,1,0,4.34,4.34A4.34,4.34,0,0,0,109.89,134.47Zm0-33.18a3.83,3.83,0,0,0-3.83,3.83v20.1a3.85,3.85,0,0,0,7.71.06V105.12a3.91,3.91,0,0,0-3.88-3.83h0Z"/><path d="M13.95,96.87a14.1,14.1,0,0,1-2.84-.26A13.8,13.8,0,0,1,.26,85.76,13.48,13.48,0,0,1,0,83V50a14.1,14.1,0,0,1,.26-2.84A13.8,13.8,0,0,1,11.11,36.36l0.19-.06V19.5a20.36,20.36,0,0,1,.39-3.94A19.57,19.57,0,0,1,26.93.39,19.88,19.88,0,0,1,30.87,0H47.6a20.36,20.36,0,0,1,3.94.39A19.5,19.5,0,0,1,66.71,15.56a19.88,19.88,0,0,1,.39,3.94V36.29l0.19,0.06A13.8,13.8,0,0,1,78.14,47.21,13.48,13.48,0,0,1,78.4,50V82.92a14.1,14.1,0,0,1-.26,2.84A13.77,13.77,0,0,1,64.45,96.87H13.95ZM35.45,54.18a8.72,8.72,0,0,0-.13,16V79.3h7V70.2a8.71,8.71,0,0,0-6.85-16h0ZM57.41,36V17.69a8.35,8.35,0,0,0-8.33-8.33H29.71a8.45,8.45,0,0,0-8.4,8.33h0V36h36.1Z"/></svg>