<?xml version="1.0" encoding="utf-8"?>
<svg version="1.1" xmlns="http://www.w3.org/2000/svg" xmlns:xlink="http://www.w3.org/1999/xlink" x="0px" y="0px"
	 viewBox="0 0 150 150" style="enable-background:new 0 0 150 150;" xml:space="preserve">
<path d="M131,99.7v-84c0-3.3-2.7-6-6-6H43c-13.2,0-24,10.7-24,24v80c0,13.2,10.8,24,24,24h82c3.3,0,6-2.7,6-6v-4
	c0-1.9-0.9-3.6-2.2-4.7c-1-3.8-1-14.8,0-18.7C130.1,103.3,131,101.6,131,99.7L131,99.7z M51,43.2c0-0.8,0.7-1.5,1.5-1.5h53
	c0.8,0,1.5,0.7,1.5,1.5v5c0,0.8-0.7,1.5-1.5,1.5h-53c-0.8,0-1.5-0.7-1.5-1.5V43.2z M51,59.2c0-0.8,0.7-1.5,1.5-1.5h53
	c0.8,0,1.5,0.7,1.5,1.5v5c0,0.8-0.7,1.5-1.5,1.5h-53c-0.8,0-1.5-0.7-1.5-1.5V59.2z M114.3,121.7H43c-4.4,0-8-3.6-8-8
	c0-4.4,3.6-8,8-8h71.3C113.9,110,113.9,117.4,114.3,121.7z"/>
</svg>
