<?xml version="1.0" encoding="utf-8"?>
<svg version="1.1" xmlns="http://www.w3.org/2000/svg" xmlns:xlink="http://www.w3.org/1999/xlink" x="0px" y="0px"
	 viewBox="0 0 150 150" style="enable-background:new 0 0 150 150;" xml:space="preserve">
<path d="M45.5,112.8c0,16.2,13.1,29.3,29.3,29.3s29.3-13.1,29.3-29.3V69.2c5.2-6.5,8.4-14.5,8.4-23.4C112.5,24.9,95.6,8,74.8,8
	S37.1,24.9,37.1,45.7c0,8.9,3.2,17,8.4,23.4V112.8z M74.8,24.8c11.6,0,21,9.4,21,21c0,6.7-3.2,12.8-8.4,16.7v50.3
	c0,6.9-5.6,12.6-12.6,12.6c-6.9,0-12.6-5.6-12.6-12.6V62.4c-5.2-3.9-8.4-10-8.4-16.7C53.8,34.2,63.2,24.8,74.8,24.8z M70.6,57.5v5
	c0,2.3,1.9,4.2,4.2,4.2c2.3,0,4.2-1.9,4.2-4.2v-5c4.9-1.7,8.4-6.3,8.4-11.8c0-6.9-5.6-12.6-12.6-12.6c-6.9,0-12.6,5.6-12.6,12.6
	C62.2,51.2,65.7,55.8,70.6,57.5z"/>
</svg>
