<?xml version="1.0" encoding="utf-8"?>
<svg version="1.1" xmlns="http://www.w3.org/2000/svg" xmlns:xlink="http://www.w3.org/1999/xlink" x="0px" y="0px"
	 viewBox="0 0 150 150" style="enable-background:new 0 0 150 150;" xml:space="preserve">
<path id="Motion" d="M90.7,144.3v-34.5L73.3,89.7l-6.9,25.5l-23.8,30.4c0,0-6,5.8-11.9,1.3s-0.4-11-0.4-11l21.5-26.1L62,51.1
	L56.5,54l-9.9,18.1c0,0-2.4,6.9-8.4,5s-3.3-8.7-3.3-8.7l12.9-24.5l25.6-14.1c3-0.9,6.2-0.9,9.3,0c5.5,1.5,6.3,2.1,8.1,4.5
	s12.1,27.6,12.1,27.6l20.9,4.5c2.6,0.7,4.4,3.1,4.3,5.8c-0.1,2.9-1.7,5.4-4.3,6.7L94.1,73l-5-11.9l-2.3,20.6l17.9,21.3l0.8,41.4
	c0,0,0,5.3-6.8,5.6c-0.2,0-0.4,0-0.6,0C94.7,150.1,91.5,147.8,90.7,144.3L90.7,144.3z M70.5,13c0-7.2,5.8-13,13-13
	c7.2,0,13,5.8,13,13s-5.8,13-13,13c0,0,0,0,0,0C76.4,26,70.5,20.2,70.5,13C70.5,13,70.5,13,70.5,13z"/>
</svg>
