<?xml version="1.0" encoding="utf-8"?>
<svg version="1.1" xmlns="http://www.w3.org/2000/svg" xmlns:xlink="http://www.w3.org/1999/xlink" x="0px" y="0px"
	 viewBox="0 0 512 512" style="enable-background:new 0 0 512 512;" xml:space="preserve">
<g>
	<path d="M421.9,63.6c-4.4-3.7-10-5.7-15.7-5.7c-7.1,0-13.9,3.1-18.4,8.5c-4.3,4.9-6.3,11.2-5.7,17.7c0.5,6.4,3.6,12.4,8.5,16.5
		c46.4,39.3,73.1,96.4,73.1,156.5c0,113.9-93.1,206.4-207.5,206.4S48.7,370.9,48.7,257.2c0-60.3,26.7-117.3,73.1-156.5
		c4.9-4.1,8-10,8.5-16.5c0.5-6.4-1.5-12.8-5.7-17.7c-4.7-5.3-11.3-8.5-18.4-8.5c-5.7,0-11.3,2-15.7,5.7C32.9,112.1,0,182.7,0,257.1
		C0,397.6,114.8,512,256,512s256-114.4,256-254.9C512,182.7,479.1,112.1,421.9,63.6z"/>
	<path d="M257.2,280.7c13.6,0,24.7-11.1,24.7-24.7V24.7c0-13.6-11.1-24.7-24.7-24.7c-13.6,0-24.7,11.1-24.7,24.7V256
		C232.5,269.6,243.6,280.7,257.2,280.7z"/>
</g>
</svg>
