<?xml version="1.0" encoding="utf-8"?>
<svg version="1.1" xmlns="http://www.w3.org/2000/svg" xmlns:xlink="http://www.w3.org/1999/xlink" x="0px" y="0px"
	 viewBox="0 0 150 150" style="enable-background:new 0 0 150 150;" xml:space="preserve">
<path d="M136,45V22.5c0-4.1-3.4-7.5-7.5-7.5H106c-4.1,0-7.5,3.4-7.5,7.5h-45c0-4.1-3.4-7.5-7.5-7.5H23.5c-4.1,0-7.5,3.4-7.5,7.5V45
	c0,4.1,3.4,7.5,7.5,7.5v45c-4.1,0-7.5,3.4-7.5,7.5v22.5c0,4.1,3.4,7.5,7.5,7.5H46c4.1,0,7.5-3.4,7.5-7.5h45c0,4.1,3.4,7.5,7.5,7.5
	h22.5c4.1,0,7.5-3.4,7.5-7.5V105c0-4.1-3.4-7.5-7.5-7.5v-45C132.6,52.5,136,49.1,136,45z M113.5,30h7.5v7.5h-7.5V30z M31,30h7.5v7.5
	H31V30z M38.5,120H31v-7.5h7.5V120z M121,120h-7.5v-7.5h7.5V120z M113.5,97.5H106c-4.1,0-7.5,3.4-7.5,7.5v7.5h-45V105
	c0-4.1-3.4-7.5-7.5-7.5h-7.5v-45H46c4.1,0,7.5-3.4,7.5-7.5v-7.5h45V45c0,4.1,3.4,7.5,7.5,7.5h7.5V97.5z"/>
</svg>
