<?xml version="1.0" encoding="utf-8"?>
<svg version="1.1" xmlns="http://www.w3.org/2000/svg" xmlns:xlink="http://www.w3.org/1999/xlink" x="0px" y="0px"
	 viewBox="0 0 150 150" style="enable-background:new 0 0 150 150;" xml:space="preserve">
<path d="M129,36.3h-20.3V24.2c0-6.7-5.5-12.2-12.2-12.2H55.9c-6.7,0-12.2,5.5-12.2,12.2v12.2H23.4c-6.7,0-12.2,5.5-12.2,12.2v73
	c0,6.7,5.5,12.2,12.2,12.2H129c6.7,0,12.2-5.5,12.2-12.2v-73C141.1,41.8,135.7,36.3,129,36.3z M60,28.2h32.5v8.1H60V28.2z
	 M100.6,91.1c0,1.1-0.9,2-2,2H84.3v14.2c0,1.1-0.9,2-2,2H70.1c-1.1,0-2-0.9-2-2V93.2H53.9c-1.1,0-2-0.9-2-2V79c0-1.1,0.9-2,2-2h14.2
	V62.7c0-1.1,0.9-2,2-2h12.2c1.1,0,2,0.9,2,2v14.2h14.2c1.1,0,2,0.9,2,2V91.1z"/>
</svg>
