<?xml version="1.0" encoding="utf-8"?>
<svg version="1.1" xmlns="http://www.w3.org/2000/svg" xmlns:xlink="http://www.w3.org/1999/xlink" x="0px" y="0px"
	 viewBox="0 0 150 150" style="enable-background:new 0 0 150 150;" xml:space="preserve">
<path id="Security" d="M75.8,150c-4.6-3.3-9-6.8-13.1-10.6c-10.7-9.6-20.4-20.3-28.9-31.8C22.9,93,17.3,75.5,14.5,63.5
	c-1.8-7.5-2.9-15.2-3.5-22.9c0.1,0,13.5-2,33.6-14.5C64.5,13.7,75.9,0.1,76,0c0.2,0.2,16.9,16.3,34.6,26.1
	c9.9,5.6,20.1,10.4,30.6,14.5v0c-0.6,7.1-1.9,14.1-3.6,21C134.7,73,129,90,118.3,106c-8.2,12.4-18,23.7-29,33.6
	C85.1,143.5,80.6,147,75.8,150L75.8,150z M49.3,32.6C40,38.3,30,43,19.6,46.6c0,0-0.4,5.8,1.9,15.5c2.1,8.9,7,22.9,18.3,39.3
	s20.4,25.9,26.1,30.9c6.2,5.5,9.7,7.1,9.8,7.1c0.2-0.1,21.9-14.2,37.4-38c4.5-6.9,10.9-18.8,15.8-36.4c1.7-6,3.1-12.1,4-18.3l-0.1,0
	c-2-1-12.9-6.2-26.5-13.9C91.4,24.2,76.1,11.3,76,11.1C75.9,11.3,63.3,23.9,49.3,32.6z M75.7,131.9c-6.3-5.6-12.3-11.4-17.9-17.6
	l50.8-74.9c5.8,3.4,11.9,6.4,18.1,9.1c-2.2,14.9-7.2,29.4-14.6,42.5C99.7,112.7,76,131.7,75.7,131.9L75.7,131.9
	C75.7,131.9,75.7,131.9,75.7,131.9z M48.8,103.9c-3.3-4.1-6.4-8.4-9.1-12.9c-7.5-12.4-12.4-26.3-14.5-40.7
	c8.8-3.5,17.3-7.7,25.3-12.7C59.4,31.7,68,25.3,76,18.3c0.1,0,10.7,7.5,21.2,14.2L48.8,103.9L48.8,103.9
	C48.8,103.9,48.8,103.9,48.8,103.9z"/>
</svg>
