<svg xmlns="http://www.w3.org/2000/svg" viewBox="0 0 150 150"><path d="M68.51,117a13.1,13.1,0,1,0,13.1,13.1A13.11,13.11,0,0,0,68.51,117Z"/><path d="M116.18,117a13.1,13.1,0,1,0,13.1,13.1A13.11,13.11,0,0,0,116.18,117Z"/><polygon points="51.41 110.87 51.65 110.81 51.4 110.81 51.41 110.87"/><path d="M130.24,89.78a3.36,3.36,0,0,0,.45-.6h0a1.86,1.86,0,0,0,.1-.2,3.83,3.83,0,0,0,.35-.83l18.38-47.27a6.87,6.87,0,0,0-2.44-8.11h0a10.09,10.09,0,0,0-5.86-1.87H41.09L35.74,11.19A6,6,0,0,0,30,6.93L5.61,6.81C2.43,6.82,0,8.6,0,11.5a5.91,5.91,0,0,0,5.65,5.83l21.5.53L51.72,110.8h78.74c3.88,0,7-2.22,7-5s-3.14-5-7-5H59.85l-2.54-9.41h69A5.29,5.29,0,0,0,130.24,89.78Z"/></svg>