<svg xmlns="http://www.w3.org/2000/svg" viewBox="0 0 150 150"><rect x="41.29" y="60.6" width="67.43" height="4.65" rx="0.93"/><path d="M129.61,25.26H20.39a.93.93,0,0,0-.94.93v97.62a.93.93,0,0,0,.94.93H35.47a.93.93,0,0,0,.93-.93V53.17a.93.93,0,0,1,.93-.93h75.34a.93.93,0,0,1,.93.93v70.64a.93.93,0,0,0,.93.93h15.08a.93.93,0,0,0,.94-.93V26.19A.93.93,0,0,0,129.61,25.26Z"/><rect x="41.29" y="96.16" width="67.43" height="4.65" rx="0.93"/><rect x="41.29" y="108.02" width="67.43" height="4.65" rx="0.93"/><rect x="41.29" y="120.09" width="67.43" height="4.65" rx="0.93"/><rect x="41.29" y="84.31" width="67.43" height="4.65" rx="0.93"/><rect x="41.29" y="72.46" width="67.43" height="4.65" rx="0.93"/></svg>