<?xml version="1.0" encoding="utf-8"?>
<svg version="1.1" xmlns="http://www.w3.org/2000/svg" xmlns:xlink="http://www.w3.org/1999/xlink" x="0px" y="0px"
	 viewBox="0 0 150 150" style="enable-background:new 0 0 150 150;" xml:space="preserve">
<path d="M76.2,100.4c14.1,0,25.5-11.4,25.5-25.5V32.4c0-14.1-11.4-25.5-25.5-25.5S50.7,18.3,50.7,32.4v42.6
	C50.7,89,62.1,100.4,76.2,100.4z M118.7,57.9h-4.3c-2.4,0-4.3,1.9-4.3,4.3v12.8c0,19.9-17.2,35.9-37.4,33.9
	c-17.7-1.7-30.6-17.6-30.6-35.4V62.1c0-2.4-1.9-4.3-4.3-4.3h-4.3c-2.4,0-4.3,1.9-4.3,4.3v10.7c0,23.8,17,45.1,40.4,48.3v9.1H54.9
	c-2.4,0-4.3,1.9-4.3,4.3v4.3c0,2.4,1.9,4.3,4.3,4.3h42.6c2.4,0,4.3-1.9,4.3-4.3v-4.3c0-2.4-1.9-4.3-4.3-4.3H82.6v-9
	c22.8-3.1,40.4-22.7,40.4-46.3V62.1C123,59.8,121.1,57.9,118.7,57.9z"/>
</svg>
