<?xml version="1.0" encoding="utf-8"?>
<svg version="1.1" xmlns="http://www.w3.org/2000/svg" xmlns:xlink="http://www.w3.org/1999/xlink" x="0px" y="0px"
	 viewBox="0 0 150 150" style="enable-background:new 0 0 150 150;" xml:space="preserve">
<path d="M89.6,109.2c0,9.3-7.6,16.9-16.9,16.9s-16.9-7.6-16.9-16.9c0-6.2,3.4-11.7,8.4-14.6V50.2c0-4.7,3.8-8.4,8.4-8.4
	c4.7,0,8.4,3.8,8.4,8.4v44.5C86.2,97.6,89.6,103,89.6,109.2z M98.1,86.9c5.3,5.9,8.4,13.8,8.4,22.3c0,18.6-15.1,33.7-33.7,33.7
	c-0.1,0-0.2,0-0.2,0C54,142.9,38.9,127.6,39,109.1c0-8.5,3.2-16.2,8.4-22.1V33.3C47.4,19.3,58.8,8,72.8,8s25.3,11.3,25.3,25.3V86.9z
	 M93.8,109.2c0-9.1-5.1-13.8-8.4-17.5V33.3c0-7-5.7-12.7-12.7-12.7s-12.7,5.7-12.7,12.7v58.4c-3.4,3.8-8.4,8.5-8.4,17.4
	c-0.1,11.6,9.4,21.1,20.9,21.2l0.2,0C84.4,130.3,93.8,120.9,93.8,109.2z"/>
</svg>
