<?xml version="1.0" encoding="utf-8"?>
<svg version="1.1" xmlns="http://www.w3.org/2000/svg" xmlns:xlink="http://www.w3.org/1999/xlink" x="0px" y="0px"
	 viewBox="0 0 180 180" style="enable-background:new 0 0 180 180;" xml:space="preserve">
<path id="Unloced" d="M23.6,164c-1.5,0-2.9-0.1-4.4-0.4c-8.5-1.7-15.1-8.3-16.8-16.8c-0.3-1.4-0.4-2.9-0.4-4.3v-51
	c0-1.5,0.1-2.9,0.4-4.4c1.7-8.5,8.3-15.1,16.8-16.8c1.4-0.3,2.9-0.4,4.3-0.4h66.9V44.2c0-2,0.2-4.1,0.6-6.1
	c2.4-11.8,11.7-21.1,23.5-23.5c2-0.4,4-0.6,6.1-0.6h25.9c2,0,4.1,0.2,6.1,0.6c11.8,2.4,21.1,11.7,23.5,23.5c0.4,2,0.6,4,0.6,6.1
	v10.5h-15V41.4c0-7.1-5.8-12.9-12.9-13c0,0,0,0,0,0h-30c-7.1,0-12.9,5.8-12.9,12.9c0,0,0,0,0,0v28.8l0.2,0c0.7,0.1,1.4,0.3,2.1,0.5
	l0.2,0.1c0.6,0.2,1.2,0.4,1.8,0.7c8,3.4,13.2,11.2,13.2,19.9v51c0,1.5-0.1,2.9-0.4,4.4c-1.7,8.5-8.3,15.1-16.8,16.8
	c-1.4,0.3-2.9,0.4-4.3,0.4C101.8,164,23.6,164,23.6,164z M56.9,97.9c-6.9,2.9-10.1,10.8-7.2,17.7c1.3,3.2,3.9,5.7,7,7.1v14.1h10.8
	v-14.1c6.8-2.9,10-10.9,7.1-17.7C71.7,98.1,63.8,94.9,56.9,97.9L56.9,97.9z"/>
</svg>
