<svg xmlns="http://www.w3.org/2000/svg" viewBox="0 0 150 150"><path d="M34.4,97.12c0-5.64,4.84-8.3,6.66-9.3l.41-.23c.35-.23,1.17-.77,11.71-5.77-4-1.93-16.85-8.07-16.85-8.07v-5a7.55,7.55,0,0,0,3-5.68l.17-1.76c1.31-.06,2.54-1.6,2.84-3.65l0-.16c.33-2.23-.56-4.21-2-4.42h-.07l.42-4.4c0-4.55-3.58-11-11.8-11s-11.81,6.44-11.81,11l.43,4.4H17.5c-1.43.21-2.32,2.19-2,4.42l0,.16c.31,2.05,1.54,3.58,2.85,3.65l.16,1.76a7.56,7.56,0,0,0,3,5.68v5s-17,8-18,8.62S0,84,0,86V98.8H34.4Z"/><path d="M105,92.88c-1.11-.57-21.26-10.2-21.26-10.2V76.77a8.94,8.94,0,0,0,3.57-6.72L87.5,68c1.55-.09,3-1.89,3.36-4.32l0-.19c.38-2.64-.67-5-2.36-5.23h-.08L89,53c0-5.38-4.26-13-14-13S61,47.66,61,53l.51,5.2h-.08c-1.7.25-2.75,2.59-2.35,5.23l0,.19c.36,2.43,1.82,4.23,3.36,4.32l.21,2.07a8.9,8.9,0,0,0,3.57,6.72v5.91S46.18,92.09,45,92.88s-4.24,1.9-4.24,4.24v15.19h68.48V97.12C109.24,94.78,106.1,93.46,105,92.88Z"/><path d="M146.41,82.37c-.93-.48-18-8.62-18-8.62v-5a7.55,7.55,0,0,0,3-5.68l.17-1.76c1.31-.06,2.54-1.6,2.84-3.65l0-.16c.33-2.23-.56-4.21-2-4.42h-.07l.42-4.4c0-4.55-3.59-11-11.8-11s-11.81,6.44-11.81,11l.43,4.4h-.07c-1.43.21-2.32,2.19-2,4.42l0,.16c.31,2.05,1.53,3.58,2.84,3.65l.18,1.76a7.55,7.55,0,0,0,3,5.68v5s-13.12,6.14-17,8.08c5.26,2.52,10.59,5.08,11.22,5.4l.25.13c1.84.91,7.43,3.69,7.43,9.76V98.8H150V86C150,84,147.35,82.86,146.41,82.37Z"/></svg>