<?xml version="1.0" encoding="utf-8"?>
<svg version="1.1" xmlns="http://www.w3.org/2000/svg" xmlns:xlink="http://www.w3.org/1999/xlink" x="0px" y="0px"
	 viewBox="0 0 150 150" style="enable-background:new 0 0 150 150;" xml:space="preserve">
<path d="M74.9,75.5c18.6,0,33.7-15.1,33.7-33.7S93.5,8.1,74.9,8.1S41.3,23.2,41.3,41.8S56.3,75.5,74.9,75.5z M98.5,83.9h-4.4
	c-5.8,2.7-12.3,4.2-19.2,4.2s-13.3-1.5-19.2-4.2h-4.4C31.8,83.9,16,99.8,16,119.3v10.9c0,7,5.7,12.6,12.6,12.6h92.6
	c7,0,12.6-5.7,12.6-12.6v-10.9C133.9,99.8,118,83.9,98.5,83.9z"/>
</svg>
