<?xml version="1.0" encoding="utf-8"?>
<svg version="1.1" xmlns="http://www.w3.org/2000/svg" xmlns:xlink="http://www.w3.org/1999/xlink" x="0px" y="0px"
	 viewBox="0 0 150 150" style="enable-background:new 0 0 150 150;" xml:space="preserve">
<path d="M11.7,79h42.1L63,97.5c2,3.9,7.6,3.9,9.6,0l16.6-33.2L96.6,79h40.7c2.9,0,5.3-2.4,5.3-5.3c0-2.9-2.4-5.3-5.3-5.3h-34.1
	L94,49.9c-2-3.9-7.6-3.9-9.6,0L67.8,83.1l-6.6-13.3c-0.5-0.9-1.4-1.5-2.4-1.5H11.7C10.2,68.4,9,69.6,9,71v5.3
	C9,77.8,10.2,79,11.7,79z"/>
</svg>
