<?xml version="1.0" encoding="utf-8"?>
<svg version="1.1" xmlns="http://www.w3.org/2000/svg" xmlns:xlink="http://www.w3.org/1999/xlink" x="0px" y="0px"
	 viewBox="0 0 150 150" style="enable-background:new 0 0 150 150;" xml:space="preserve">
<path id="warning" d="M134.1,133.1c-0.3,0-0.5,0-0.7-0.1H16.3c-1.2,0-2.4-0.3-3.6-0.7c-2.3-0.8-4.3-2.4-5.7-4.4
	c-0.8-1.2-1.5-2.6-1.7-4.1c-0.2-1.3-0.3-2.6-0.1-3.8c0.2-1.4,0.5-2.7,1-3.9L65,22.8c0.7-1.4,1.6-2.7,2.6-3.9c0.8-1,1.9-2,3-2.7
	S73,15,74.4,15l0,0c1.4,0,2.8,0.5,3.9,1.2c1.2,0.7,2.2,1.7,3.2,2.7c1.1,1.2,2.1,2.5,2.9,3.9l59.7,93.2c0.5,1.1,0.8,2.4,0.9,3.6
	c0.1,1.3,0,2.6-0.3,3.8c-0.4,1.6-1.1,3.1-2.1,4.4c-1.2,1.9-2.9,3.4-4.8,4.3C136.5,132.7,135.3,133.1,134.1,133.1L134.1,133.1z
	 M74.8,105.9c-4.2,0-7.6,3.4-7.6,7.6c0,4.2,3.4,7.6,7.6,7.6c4.2,0,7.6-3.4,7.6-7.6C82.4,109.2,78.9,105.9,74.8,105.9z M74.8,47.8
	c-3.7,0-6.7,3-6.7,6.7v35.2c0,3.7,3,6.8,6.7,6.8s6.8-3,6.8-6.7c0-0.1,0-0.1,0-0.2V54.5C81.5,50.8,78.5,47.8,74.8,47.8L74.8,47.8z"/>
</svg>
