<?xml version="1.0" encoding="utf-8"?>
<svg version="1.1" xmlns="http://www.w3.org/2000/svg" xmlns:xlink="http://www.w3.org/1999/xlink" x="0px" y="0px"
	 viewBox="0 0 150 150" style="enable-background:new 0 0 150 150;" xml:space="preserve">
<path d="M139.9,104.8c-5-0.6-9.9-2.5-13.6-5.4c-3.3-2.6-8-2.7-11.3,0c-8.9,7.1-25.2,7.1-34.2-0.4c-3.2-2.6-7.7-2.1-11,0.4
	c-8.9,7.1-25.1,7-34.1-0.4c-3.2-2.6-7.8-2.1-11.1,0.5c-3.6,2.9-8.4,4.7-13.5,5.3C9.3,105,8,106.6,8,108.5v7.6c0,2.1,1.8,3.9,3.9,3.8
	c6.8-0.6,13.2-2.7,18.6-6.1c13.3,8.1,32.1,8,45.1,0c13.3,8.1,32.1,8,45.1,0c5.5,3.3,11.9,5.5,18.6,6.1c2.1,0.2,3.9-1.6,3.9-3.8v-7.4
	C143.2,106.7,141.8,105,139.9,104.8z M139.9,71c-5-0.6-9.9-2.5-13.6-5.4c-3.3-2.6-8-2.7-11.3,0c-8.9,7.1-25.2,7.1-34.2-0.4
	c-3.2-2.6-7.7-2.1-11,0.4c-8.9,7.1-25.1,7-34.1-0.4c-3.2-2.6-7.8-2.1-11.1,0.5c-3.6,2.9-8.4,4.7-13.5,5.3C9.3,71.2,8,72.8,8,74.7
	v7.6c0,2.1,1.8,3.9,3.9,3.8c6.8-0.6,13.2-2.7,18.6-6.1c13.3,8.1,32.1,8,45.1,0c13.3,8.1,32.1,8,45.1,0c5.5,3.3,11.9,5.5,18.6,6.1
	c2.1,0.2,3.9-1.6,3.9-3.8v-7.4C143.2,72.9,141.8,71.2,139.9,71L139.9,71z M139.9,37.2c-5-0.6-9.9-2.5-13.6-5.4
	c-3.3-2.6-8-2.7-11.3,0c-8.9,7.1-25.2,7.1-34.2-0.4c-3.2-2.6-7.7-2.1-11,0.4c-8.9,7.1-25.1,7-34.1-0.4c-3.2-2.6-7.8-2.1-11.1,0.5
	c-3.6,2.9-8.4,4.7-13.5,5.3C9.3,37.4,8,39,8,40.9v7.6c0,2.1,1.8,3.9,3.9,3.8c6.8-0.6,13.2-2.7,18.6-6.1c13.3,8.1,32.1,8,45.1,0
	c13.3,8.1,32.1,8,45.1,0c5.5,3.3,11.9,5.5,18.6,6.1c2.1,0.2,3.9-1.6,3.9-3.8V41C143.2,39.1,141.8,37.4,139.9,37.2L139.9,37.2z"/>
</svg>
